<?xml version="1.0" encoding="utf-8"?>
<!-- Generator: Adobe Illustrator 25.3.1, SVG Export Plug-In . SVG Version: 6.00 Build 0)  -->
<svg version="1.1" id="Réteg_1" xmlns="http://www.w3.org/2000/svg" xmlns:xlink="http://www.w3.org/1999/xlink" x="0px" y="0px"
	 viewBox="0 0 231.73 141.73" style="enable-background:new 0 0 231.73 141.73;" xml:space="preserve">
<style type="text/css">
	.st0{fill:none;stroke:#000000;stroke-miterlimit:10;}
	.st1{fill:none;stroke:#627A4D;stroke-width:0.75;stroke-miterlimit:10;}
	.st2{fill:#627A4D;}
	.st3{fill:none;stroke:#000000;stroke-width:0.75;stroke-miterlimit:10;}
	.st4{fill:#FFFFFF;}
	.st5{display:none;fill:none;}
</style>
<symbol  id="Új_szimbólum" viewBox="-38.68 -34.5 157.82 69">
	<path class="st0" d="M-8.58,22.72"/>
	<path class="st0" d="M-8.52,10.89"/>
	<g id="gombok_2_">
		<path class="st1" d="M-27.17,12.66h-3.26c-1.2,0-2.18,0.97-2.18,2.18v0c0,1.2,0.97,2.18,2.18,2.18h3.26c1.2,0,2.18-0.97,2.18-2.18
			v0C-24.99,13.63-25.97,12.66-27.17,12.66z"/>
		<circle class="st1" cx="1.96" cy="14.29" r="1.63"/>
		<circle class="st1" cx="-3.96" cy="14.29" r="1.63"/>
	</g>
	<g>
		<path class="st2" d="M42.5,5.87c0-5.43-8.45-14.63-15.48-14.63c-1.88,0-3.12,0.89-3.87,1.88c-1.88-3.98-3.23-7.78-2.95-9.73
			c-0.04-0.18-0.04-0.36,0-0.5c0.04-0.25,0.04-0.5,0.28-0.6c0.39-0.25,0.82-0.57,0.57-1.14c-0.14-0.53-5.61-0.53-5.61,4.58
			C15.62-7.8,29.12,9.67,28.73,12.4c-0.14,0.71-0.6,1.17-0.28,1.56c-7.28-2.09-14.2-9.84-14.2-15.3c0-1.46,0.04-2.59,0.46-2.88
			c0.67-0.28,0.85-0.67,0.75-0.96c-0.18-0.46-0.78-0.67-1.78-0.6c-2.02,0-4.37,2.06-4.37,5.57c0,3.23,2.09,7.74,8.34,12.85
			c1.24,0.89,2.59,1.67,4.05,2.38c2.56,1.24,5.97,2.41,9.91,2.41C39.45,17.44,42.5,11.41,42.5,5.87z M39.24,6.01
			c0.11,0.39,0.18,1.07,0.18,1.88c0,2.59-1.07,6.53-7.46,6.53c-0.99,0-2.02-0.18-3.02-0.35c0.82-0.18,2.66-1.67,2.66-3.52
			c0-0.32-0.04-0.64-0.18-1.03c-0.57-1.67-4.23-8.06-7.24-14.31c0.53-0.28,1.17-0.57,2.27-0.57C31.6-5.21,38.24,1.54,39.24,6.01z"/>
		<path class="st2" d="M57.91-2.23c-1.92-2.95-5.22-7.46-9.87-7.92c-3.87-0.46-5.86,1.74-5.86,4.65c0,1.53,0.53,3.16,1.56,4.83
			c0.75,1.17,1.53,2.17,2.38,3.02c1.42,1.42,3.37,2.81,5.4,2.31c0.43-0.11,2.34-0.67,2.45-2.17c0.11-1.53-1.14-4.01-3.69-5.25
			c-1.85-0.96-3.41-1.14-4.23-1c-0.18-0.6-0.25-1.17-0.25-1.7c0-1.99,1.31-2.63,2.38-2.52c2.77,0.28,6.78,3.55,8.7,6.32L57.91-2.23z
			 M46.41-2.83c0.75,0.11,2.31,0.57,3.69,1.95c2.09,2.09,1.88,3.3,1.7,3.55C50.95,2.78,47.83,0.33,46.41-2.83z"/>
		<path class="st2" d="M69.88-2.3l1.28-0.28C69.56-5.1,65.9-10,62.25-10c-1.67-0.04-2.59,0.92-2.98,1.88
			c-0.11,0.35-0.18,0.71-0.18,1.03c0,3.62,5.36,8.7,5.36,9.41c0,0.6-1.17,0.25-1.71,0.25c-0.46-0.04-0.89-0.04-1.28,0
			c-1.03-1.7-4.62-5.89-4.62-10.65c0-0.39,0.04-0.78,0.07-1.17c0-0.14,0.43-0.39,0.28-0.64c-0.43-0.53-3.2,0.39-3.2,3.12
			c0,0.96,0.32,2.13,1.28,3.52c1.49,2.45,4.44,5.29,4.83,6.07c-1.63,0.67-2.09,2.27-2.09,2.98c0,0.82,0.64,3.94,2.13,3.94
			c0.39,0,0.78-0.21,1.21-0.6c0.67-0.67,1.03-1.6,1.03-2.77c0-0.57-0.11-1.14-0.25-1.81c0.96,0.25,1.99,0.43,2.95,0.43
			c1.24,0,2.24-0.35,2.49-1.46c0.28-1.07-3.98-6.5-3.98-9.09c0-0.53,0.18-0.89,0.57-1.14C65.34-7.59,68.89-3.86,69.88-2.3z"/>
		<path class="st2" d="M77.09-5.25c0.92,0.78,1.88,1.74,2.91,2.84l1.07-0.64C80.04-4.36,79-5.49,77.94-6.52
			C76.02-8.23,73.79-10,71.62-10c-0.67,0.04-1.28,0.25-1.81,0.57C68.85-8.87,68-7.8,68-5.53c0,0.89,0.11,1.99,0.5,3.3
			c2.02,7.03,8.7,17.15,12.39,17.15c0.39,0,0.71-0.11,1-0.32c0.53-0.43,0.78-1.06,0.78-1.92c0-4.05-5.75-12.29-9.48-13
			c-0.67-1.7-1.03-3.27-1.03-4.54c0-0.96,0.21-1.67,0.67-2.13C73.71-7.77,75.53-6.56,77.09-5.25z M73.75,1.18
			c2.88,1.46,7.63,9.27,6.68,10.23C79.68,11.97,75.95,6.44,73.75,1.18z"/>
		<path class="st2" d="M99.24-2.87c-2.2-3.05-5.25-7.1-8.95-7.1c-2.59,0-3.83,1.42-3.73,3.37c-1.81-1.81-3.55-3.2-4.65-3.34
			c-1.99-0.18-4.08,1.28-4.08,4.12c0,1.31,0.46,2.91,1.56,4.79c1.74,2.98,3.98,4.47,5.79,5.22c1.03,0.43,2.1,0.67,3.12,0.75
			c1.14,0,2.59-0.78,3.27-2.38c0.5,0.67,0.75,1.1,0.75,1.28c0,0.25-0.18,0.75,0.07,0.99c0.14,0.18,0.32,0.21,0.53,0.18l0.28-0.11
			c0.46-0.28,0.85-0.57,1.17-0.89c0.57-0.53,1.06-1.28,0.82-2.1c-0.43-1.67-5.79-7.07-4.15-8.7c0.28-0.28,0.6-0.43,0.99-0.43
			c1.14,0,2.66,1.24,3.91,2.49c0.71,0.75,1.42,1.56,2.17,2.49l1.1-0.64H99.24z M90.51,1c0.28,0.46-0.46,1.21-0.96,1.38
			c-3.37,0.71-8.03-5.97-8.03-8.7c0-0.78,0.36-1.17,1.1-1.14C84.44-7.45,89.51-0.84,90.51,1z"/>
	</g>
	<g>
		<path d="M37.98-28.38v16.8h1.46v-15.47h6.75v-1.32H37.98z"/>
		<path d="M55.82-28.38v2.2h-0.05c-0.39-0.78-0.92-1.4-1.61-1.84c-0.68-0.44-1.46-0.66-2.33-0.66c-1.13,0-2.04,0.31-2.72,0.94
			c-0.68,0.63-1.02,1.46-1.02,2.48c0,2.16,1.36,3.44,4.08,3.84l3.65,0.54c0,2.38-0.91,3.56-2.74,3.56c-1.35,0-2.65-0.52-3.88-1.55
			v1.54c1.27,0.81,2.61,1.22,4.01,1.22c1.31,0,2.3-0.38,2.99-1.12c0.68-0.75,1.02-1.87,1.02-3.35v-7.8H55.82z M49.53-25.17
			c0-0.68,0.23-1.23,0.69-1.65s1.08-0.63,1.84-0.63c1.07,0,1.97,0.39,2.68,1.17c0.72,0.78,1.07,1.79,1.07,3.02v1.19l-3.14-0.45
			c-1.19-0.17-2.01-0.45-2.47-0.86C49.76-23.79,49.53-24.38,49.53-25.17z"/>
		<path d="M68.69-28.38v2.08h-0.05c-0.82-1.58-2.09-2.38-3.81-2.38c-2.84,0-4.26,1.75-4.26,5.26v7.03h1.39v-6.75
			c0-1.49,0.26-2.59,0.78-3.28c0.52-0.7,1.32-1.04,2.4-1.04c1.03,0,1.88,0.39,2.55,1.17s1,1.79,1,3.05v6.86h1.39v-12H68.69z"/>
		<path d="M82.05-28.38v6.92c0,2.76-1,4.15-2.99,4.15c-1.07,0-1.96-0.4-2.67-1.21c-0.7-0.8-1.06-1.8-1.06-3v-6.86h-1.39v12h1.39
			v-2.11h0.04c0.88,1.59,2.23,2.39,4.03,2.39c1.31,0,2.31-0.43,3-1.28c0.69-0.85,1.03-2.08,1.03-3.69v-7.31H82.05z"/>
		<path d="M95.49-28.38v2.12h-0.04c-0.4-0.76-0.98-1.36-1.72-1.78c-0.74-0.43-1.59-0.64-2.53-0.64c-1.51,0-2.72,0.54-3.63,1.63
			c-0.91,1.09-1.37,2.57-1.37,4.43c0,1.27,0.23,2.4,0.69,3.39c0.46,0.99,1.11,1.76,1.95,2.3c0.85,0.54,1.8,0.82,2.87,0.82
			c1.74,0,2.99-0.7,3.75-2.1h0.04v7.58h1.39v-17.76H95.49z M95.49-21.13c0,1.09-0.35,2-1.05,2.72c-0.7,0.73-1.59,1.09-2.67,1.09
			c-1.23,0-2.22-0.47-2.98-1.41c-0.76-0.94-1.14-2.2-1.14-3.8c0-1.52,0.34-2.73,1.03-3.61c0.68-0.88,1.61-1.33,2.77-1.33
			c1.22,0,2.2,0.4,2.93,1.21c0.74,0.8,1.11,1.83,1.11,3.07V-21.13z"/>
		<path d="M106.62-17.82c-0.33,0.26-0.78,0.39-1.34,0.39c-0.94,0-1.7-0.48-2.28-1.43c-0.59-0.96-0.88-2.19-0.88-3.71v-5.81h-1.37v12
			h1.37v-2.59h0.05c0.28,0.89,0.71,1.58,1.29,2.07c0.57,0.49,1.24,0.74,2,0.74c0.45,0,0.84-0.06,1.16-0.18V-17.82z"/>
		<path d="M109.68-34.02c-0.4,0-0.75,0.05-1.05,0.16v1.33c0.35-0.12,0.7-0.18,1.04-0.18c0.97,0,1.71,0.63,2.24,1.9l1.06,2.51
			l-4.6,11.93h1.55l3.48-9.58c0.11-0.33,0.2-0.63,0.25-0.89h0.06l0.12,0.41l0.14,0.43l3.7,9.63h1.47l-5.71-14.25
			c-0.47-1.18-1.01-2.04-1.6-2.58C111.23-33.75,110.51-34.02,109.68-34.02z"/>
	</g>
	<g id="fekete_keret_2_">
		<path class="st3" d="M7.46,10.94c0-5.18,0-9.97,0-9.97"/>
		<path class="st3" d="M-38.28-6.56c0,6.56,0.11,13.64,0.11,17.98"/>
		<path class="st3" d="M7.46,1.17c0,0,0.16-26.6,0.15-31.04c-0.01-4.46-5-4.25-5-4.25s-31.65,0-36.55,0s-4.35,4.76-4.35,4.76
			s0,11.42,0,22.8"/>
		<path class="st3" d="M-26.14,23.3l10.09,5.12L4.9,18.43c1.57-0.75,2.57-2.32,2.58-4.06l0.03-3.48h-45.68v3.91
			c0.01,1.48,0.84,2.82,2.16,3.49c0.74,0.37,2.94,1.49,2.94,1.49"/>
		<path class="st3" d="M-17.83,32.42c0.03,0.94,0.8,1.7,1.76,1.7c0.97,0,1.76-0.79,1.76-1.76c0-0.97-0.75-1.76-1.72-1.76
			c-0.11,0-0.28,0-0.41,0"/>
		<line class="st3" x1="-16.05" y1="28.42" x2="-16.07" y2="30.61"/>
	</g>
	<circle class="st3" cx="-15.34" cy="-10.06" r="14.53"/>
	<g id="mosógép_forgás_közepe_2_">
		<path class="st4" d="M-15.18-1.65c0,0-4.83,0.41-7.77-2.03s-3.08-5.75-3.08-6.01s-0.38-4.69,2.55-6.91c0,0-3.42,4.16-1.28,9.01
			C-22.28-1.98-15-1.62-15-1.62"/>
		<path class="st4" d="M-19.16-3.17c0,0-4.04-1.37-4.98-4.56s-0.17-5.91,0.26-6.65s1.18-3.19,4.36-4.47s4.13-1.18,4.13-1.18
			s-5.29,1.76-7.09,4.71c0,0-1.91,3.17-1.2,6.07C-22.76-5.45-19.16-3.17-19.16-3.17z"/>
		<circle id="zöld_kör_2_" class="st2" cx="-14.74" cy="-10.91" r="6.92"/>
		<circle id="fehér_kör_2_" class="st4" cx="-15" cy="-10.64" r="6.72"/>
		<g id="pöttyök_2_">
			<circle class="st2" cx="-3.74" cy="-4.23" r="0.68"/>
			<circle class="st2" cx="-6.9" cy="-0.52" r="0.81"/>
			<circle class="st2" cx="-12.73" cy="-6.41" r="0.52"/>
			<circle class="st2" cx="-10.43" cy="0.73" r="0.44"/>
			<circle class="st2" cx="-7.71" cy="-7.72" r="0.52"/>
		</g>
		<path class="st4" d="M-15.26-20.07c-0.64-0.23-6.63-0.4-8.98,5.95c-1.98,5.35,0.55,9.24,4.84,11.01c0,0-3.66-1.78-4.61-6.51
			c-0.4-2.02,0.18-3.8,0.86-5.16c0.23-0.47,0.51-0.9,0.83-1.29c0.94-1.19,2.16-2.45,3.56-3.02L-15.26-20.07z"/>
		<g id="nagy_görbe_2_">
			<path class="st5" d="M-6.52-8.1c-0.14,0.44-0.3,0.86-0.51,1.27c-1.41,2.79-4.31,4.71-7.66,4.71c-4.83,0-8.73-4-8.58-8.86
				c0.14-4.56,4.02-8.32,8.58-8.32c3.84,0,7.07,2.53,8.17,5.99C-7.37-11.74-7.37-9.68-6.52-8.1z"/>
			<path class="st2" d="M-6.4-13.41c-1.12-3.48-4.37-6.01-8.22-6.01c-5.12,0-9.2,4.47-8.57,9.71c0.45,3.78,3.45,6.9,7.22,7.47
				c3.09,0.47,5.59-1.03,7.44-3.1c0.24-0.3,0.91,0.2,0.64,0.61c-1.9,2.7-5.04,4.46-8.59,4.46c-5.93,0-10.72-4.9-10.51-10.88
				c0.18-5.21,4.33-9.6,9.51-10.08c5.29-0.48,9.86,2.96,11.13,7.75c-0.01,0.02-0.02,0.04-0.04,0.07
				C-6.39-13.42-6.39-13.41-6.4-13.41z"/>
		</g>
		<path id="külső_görbe_2_" class="st2" d="M-4.36-11.07c0.14,0.09,0.28,0.19,0.37,0.57c0.05,0.21,0.04,0.43,0.04,0.66
			c0,5.96-4.83,10.79-10.79,10.79c-1.83,0-3.55-0.47-5.05-1.27c-0.01-0.01-0.02-0.01-0.03-0.02c0.02-0.01,0.04-0.01,0.06-0.02
			c1.15,0.42,2.39,0.66,3.68,0.66c5.95,0,10.77-4.82,10.78-10.78C-5.26-11.14-4.59-11.21-4.36-11.07z"/>
		<path class="st4" d="M-13.52-20.23c-1.36-0.32-2.82-0.34-4.28,0c-5.01,1.18-8.12,6.2-6.94,11.22c0.93,3.94,4.22,6.7,8.02,7.13
			c-3.33-0.79-6.1-3.38-6.94-6.94c-1.18-5.01,1.93-10.03,6.94-11.22C-15.64-20.29-14.56-20.34-13.52-20.23z"/>
		<path class="st4" d="M-25.53-11.06c0-3.74,2.14-6.97,5.27-8.54c-3.57,1.36-6.11,4.82-6.11,8.88c0,5.25,4.25,9.5,9.5,9.5
			c1.15,0,2.26-0.21,3.28-0.58c-0.76,0.2-1.56,0.3-2.38,0.3C-21.25-1.51-25.53-5.78-25.53-11.06z"/>
	</g>
</symbol>
<path class="st0" d="M27.36,48.63"/>
<use xlink:href="#Új_szimbólum"  width="157.82" height="69" id="XMLID_1_" x="-38.68" y="-34.5" transform="matrix(1.3308 0 0 -1.3308 59.3713 69.5822)" style="overflow:visible;"/>
</svg>
